<?xml version="1.0" encoding="utf-8"?>
<!-- Generator: Adobe Illustrator 23.0.6, SVG Export Plug-In . SVG Version: 6.00 Build 0)  -->
<svg version="1.1" id="Layer_1" xmlns="http://www.w3.org/2000/svg" xmlns:xlink="http://www.w3.org/1999/xlink" x="0px" y="0px"
	 viewBox="0 0 2245 450" style="enable-background:new 0 0 2245 450;" xml:space="preserve">
<style type="text/css">
	.st0{fill:#FFFFFF;}
</style>
<g>
	<g>
		<g transform="translate(0.000000,4545.000000) scale(0.100000,-0.100000)">
			<g>
				<path class="st0" d="M3245.7,43379.89v-1499.95h84.27h84.27v692.97v692.97h214.53h214.53l6.34-19.53
					c3.47-10.8,104.89-322.69,225.34-692.97l218.99-673.44h92.99c61.96,0,92.99,0.3,92.99,0.99c0,0.59-106.87,317.83-237.43,705.06
					c-130.56,387.23-237.14,704.38-236.74,704.77c0.5,0.3,5.95,2.28,12.19,4.36c27.96,9.12,62.75,24.39,87.74,38.66
					c146.53,83.27,232.18,243.09,263.71,491.72c8.03,63.84,11.6,114.5,13.58,196.39c1.98,83.77-1.09,173.79-8.72,250.22
					c-21.61,219-80.6,374.34-179.34,472.39c-76.04,75.64-173.49,117.08-306.33,130.36c-44.61,4.36-37.87,4.27-346.68,4.66
					l-296.22,0.4V43379.89z M3846.47,44724.89c45.6-5.25,78.52-12.79,111.03-25.18c44.91-17.15,82.09-41.44,114.7-74.95
					c62.06-63.85,102.41-158.23,123.72-289.68c12-73.86,18.34-164.37,18.34-263.71c0-202.73-23.99-351.05-73.86-455.04
					c-54.43-113.71-142.66-178.35-268.86-196.79c-37.67-5.45-29.94-5.25-251.81-5.65l-205.51-0.39v656.88v656.89l208.98-0.4
					C3811.28,44726.57,3833.49,44726.37,3846.47,44724.89z"/>
				<path class="st0" d="M5436.14,44878.65c-0.2-0.7-144.84-673.14-321.21-1494.3c-176.46-821.16-321.4-1495.59-322.1-1498.66
					l-1.29-5.75h93.29h93.39l88.03,448.79c48.38,246.95,88.23,449.69,88.43,450.68c0.5,1.59,17.75,1.69,349.66,1.49l349.16-0.3
					l90.41-450.09c49.77-247.55,90.51-450.18,90.51-450.28c0-0.5,186.38-0.3,186.38,0.1c0,0.3-623.77,2961.44-630.22,2991.87
					l-1.59,7.63h-76.24C5452.7,44879.84,5436.44,44879.54,5436.14,44878.65z M5823.28,42935.06c0-0.99-64.14-1.29-317.34-1.29
					c-301.68,0-317.24,0.1-316.74,1.78c0.3,0.89,71.08,359.28,157.23,796.27c86.25,437,157.03,795.28,157.33,796.07
					C5504.25,44529.09,5823.08,42939.32,5823.28,42935.06z"/>
				<path class="st0" d="M6540.04,43379.89v-1499.95h84.27h84.27v1499.95v1499.95h-84.27h-84.27V43379.89z"/>
				<path class="st0" d="M7315.3,43379.89v-1499.95l308.12,0.3c332.51,0.3,310.8,0,351.64,5.16c103,13.09,195.6,49.96,265.69,105.58
					c29.25,23.3,63.55,58.99,92.4,96.27c67.81,87.73,102.51,193.12,122.63,373.65c17.45,155.84,24.88,365.42,26.27,745.81
					c0.99,288.79-0.4,538.71-3.87,689.2c-9.12,391.89-34.2,574.7-95.67,697.43c-24.98,49.97-58.89,95.77-105.78,142.86
					c-78.32,78.62-190.54,127.29-322.99,140.08c-34.8,3.37-50.56,3.57-344.6,3.57H7315.3V43379.89z M7906.35,44726.18
					c86.75-5.95,158.12-29.35,212.45-69.89c30.24-22.5,66.72-61.96,90.22-97.65c66.62-101.22,90.51-252.01,99.63-628.53
					c5.75-237.93,6.25-795.09,0.99-1055.82c-6.44-318.63-21.91-475.86-57-581.44c-16.85-50.56-37.18-87.64-69.4-126.5
					c-13.58-16.46-38.66-42.23-51.06-52.64c-49.27-41.44-113.91-67.41-191.33-77.03c-35.29-4.46-32.22-4.36-248.54-4.76
					l-208.49-0.39v1347.77v1347.87h203.63C7817.63,44727.16,7896.64,44726.77,7906.35,44726.18z"/>
				<path class="st0" d="M8946.11,43379.89v-1499.95h484.78h484.78v75.84v75.84h-400.52h-400.52v635.97v635.96h345.49h345.49v76.34
					v76.34h-345.49h-345.49v635.47v635.47h400.52h400.52v76.34v76.34h-484.78h-484.78V43379.89z"/>
				<path class="st0" d="M10344.94,43379.89v-1499.95h84.27h84.27l0.2,1266.18l0.3,1266.18l441.66-1265.89l441.76-1265.98l93.39-0.3
					l93.39-0.2v1499.95v1499.95h-84.76h-84.76l-0.2-1265.98l-0.3-1265.98l-441.66,1265.98l-441.66,1265.98h-92.89h-92.99V43379.89z"
					/>
				<path class="st0" d="M50,44873.89c1.09-0.5,20.52-8.23,43.12-17.15c450.98-178.75,805.39-408.25,1050.86-680.78
					c228.91-253.99,362.35-549.52,378.71-838.61c1.88-34.6,1.09-86.94-1.88-112.32l-0.69-6.74h343.71h343.71l0.69,10.21
					c1.19,15.57,0.89,108.26-0.4,135.52c-4.66,100.33-15.07,186.08-33.81,279.57c-38.96,194.7-110.54,386.04-213.84,571.82
					c-105.88,190.54-247.05,375.43-406.46,532.57c-48.28,47.68-91.7,86.84-132.94,120.25l-8.23,6.64l-682.26-0.1
					C335.12,44874.78,48.81,44874.39,50,44873.89z"/>
				<path class="st0" d="M547.18,42828.88c0-521.96,0.2-948.94,0.4-948.94c0.3,0,192.92,111.73,428.08,248.24
					c284.82,165.36,427.58,248.74,427.48,249.73c-0.1,1.39-852.88,1396.55-855.16,1399.03
					C547.57,43777.43,547.18,43350.84,547.18,42828.88z"/>
			</g>
		</g>
		<g>
			<path class="st0" d="M1301.27,357V56.73h97v15.18h-80.13v127.36h69.16v15.18h-69.16v127.36h80.13V357H1301.27z"/>
			<path class="st0" d="M1517.6,357l-36.27-95.31L1445.07,357h-17.71l45.55-107.96l-43.02-103.74h17.71l33.74,91.51l33.74-91.51
				h17.71l-43.86,103.74L1535.32,357H1517.6z"/>
			<path class="st0" d="M1654.66,346.03c-7.17,8.01-17.29,14.34-31.21,14.34c-10.54,0-18.13-2.11-25.3-7.17
				c-3.8-2.53-8.43-8.01-10.96-12.65v105.01h-16.03V145.29h16.03v17.29c2.11-4.64,7.59-10.12,10.96-12.65
				c7.17-5.48,15.18-8.01,25.3-8.01c11.81,0,22.77,5.06,31.21,14.34c12.65,13.92,16.03,39.64,16.03,94.89
				C1670.68,306.39,1667.31,332.12,1654.66,346.03z M1642.43,165.96c-5.06-5.48-12.65-9.7-21.93-9.7c-8.86,0-16.45,2.95-22.35,8.43
				c-7.17,7.17-10.96,17.29-10.96,32.89v107.12c0,15.6,3.79,25.73,10.96,32.89c5.9,5.48,13.5,8.43,22.35,8.43
				c9.28,0,16.87-4.22,21.93-9.7c10.96-12.23,12.23-34.58,12.23-85.19S1653.39,178.19,1642.43,165.96z"/>
			<path class="st0" d="M1729.72,343.5c-8.43-8.43-13.92-20.24-13.92-40.06V56.73h16.03v247.55c0,24.88,11.81,38.38,36.69,38.38V357
				C1754.18,357,1740.26,354.05,1729.72,343.5z"/>
			<path class="st0" d="M1880.7,345.61c-8.01,8.86-19.4,14.76-35,14.76c-15.6,0-26.99-5.9-35-14.76
				c-12.65-13.92-16.03-39.22-16.03-94.47c0-55.25,3.37-80.55,16.03-94.47c8.01-8.86,19.4-14.76,35-14.76c15.6,0,26.99,5.9,35,14.76
				c12.65,13.92,16.03,39.22,16.03,94.47C1896.72,306.39,1893.35,331.7,1880.7,345.61z M1868.46,165.96
				c-5.06-5.48-12.65-9.7-22.77-9.7c-10.12,0-17.71,4.22-22.77,9.7c-10.96,12.23-12.23,34.58-12.23,85.19s1.26,72.96,12.23,85.19
				c5.06,5.48,12.65,9.7,22.77,9.7c10.12,0,17.71-4.22,22.77-9.7c10.96-12.23,12.23-34.58,12.23-85.19
				S1879.43,178.19,1868.46,165.96z"/>
			<path class="st0" d="M2003.41,156.26c-26.99,0-43.02,16.45-43.02,43.02V357h-16.03V145.29h16.03v22.35
				c1.26-3.79,5.06-9.7,7.17-11.81c9.28-10.12,22.35-13.92,37.53-13.92v14.34H2003.41z"/>
			<path class="st0" d="M2045.17,251.15c0,50.61,1.69,72.96,12.65,85.19c5.06,5.48,13.07,9.7,23.19,9.7c8.43,0,17.29-2.53,23.2-8.43
				c7.59-7.17,10.96-18.56,10.96-34.16h15.6c0,21.09-4.64,32.89-14.76,43.44c-8.86,8.86-21.51,13.5-35,13.5
				c-15.6,0-27.41-5.9-35.42-14.76c-12.65-13.92-16.45-39.22-16.45-94.47c0-55.25,3.37-80.55,16.03-94.47
				c8.01-8.86,19.4-14.76,35-14.76c15.6,0,26.99,5.9,35,14.76c12.65,13.92,16.03,39.22,16.03,94.47H2045.17z M2102.94,165.96
				c-5.06-5.48-12.65-9.7-22.77-9.7c-10.12,0-17.71,4.22-22.77,9.7c-10.12,10.96-11.81,30.36-12.23,71.69h70.01
				C2114.75,196.32,2113.06,176.92,2102.94,165.96z"/>
			<path class="st0" d="M2235.78,156.26c-26.99,0-43.02,16.45-43.02,43.02V357h-16.03V145.29h16.03v22.35
				c1.26-3.79,5.06-9.7,7.17-11.81c9.28-10.12,22.35-13.92,37.53-13.92v14.34H2235.78z"/>
		</g>
	</g>
</g>
</svg>
